<svg width="888" height="450" viewBox="0 0 888 450" fill="none" xmlns="http://www.w3.org/2000/svg">
<g clip-path="url(#clip0_70_129)">
<rect width="888" height="450" fill="#FBF9F8"/>
<path d="M615.463 -6.09259C615.653 6.00779 645.837 23.8703 679.619 21.1028C710.555 18.5657 725.772 35.9001 743.221 52.7395C758.677 67.6746 775.956 73.7654 795.978 53.6895C816.24 33.3877 832.621 58.39 852.169 58.9949C862.696 59.2771 873.192 57.7488 883.201 54.4764C883.514 54.3757 884.138 54.6567 884.445 54.5566C884.752 54.4566 885.22 53.8029 885.505 53.7113C887.644 52.9829 889.229 52.3721 891.341 51.5018C891.507 51.4357 892.096 51.5175 892.262 51.4515C892.593 51.3136 892.739 50.5817 893.053 50.4459C893.5 50.2538 893.731 50.494 894.196 50.3114C894.554 50.153 895.751 50.1284 896.105 49.9821C896.55 49.7786 896.161 49.4292 896.595 49.2213C898.682 48.2434 900.757 47.2029 902.822 46.0998C903.198 45.8986 904.196 46.0078 904.566 45.8073C904.566 45.8073 904.768 44.4701 905.173 44.8118C905.579 45.1535 908.388 43.2712 908.946 42.9439C911.177 41.6586 911.292 41.2092 913.495 39.7876C914.351 39.2335 917.23 38.2903 918.086 37.7362C918.797 37.2748 919.666 36.388 920.694 35.5696C921.354 35.0269 923.048 34.7462 922.658 34.0424C922.393 33.568 924.557 33.1447 925.221 32.683C927.122 31.3551 928.445 30.0428 930.426 28.5079C931.737 27.4877 932.49 27.8291 933.764 26.7842C934.742 25.9891 936.193 23.7436 937.201 23.0032C937.803 22.5546 938.408 21.786 939.325 21.8409C939.75 21.8605 939.587 21.1649 939.857 20.8541C942.44 17.8362 945.11 15.209 947.94 12.3769C948.852 11.4617 952.254 10.3291 953.131 9.41226C954.251 8.24023 953.473 7.39035 954.528 6.21999C955.349 5.30986 956.628 4.36311 957.398 3.47624C957.96 2.72082 958.481 1.93593 958.959 1.12491C959.797 -0.0256125 961.538 -0.149207 961.403 -0.90619C961.295 -1.47469 961.731 -1.81072 961.95 -2.60368C962.318 -3.91382 963.082 -4.06769 963.622 -4.79381C963.767 -4.99101 963.604 -5.73316 964.057 -5.37968C964.785 -4.80865 965.14 -6.86697 965.656 -7.60186C965.874 -7.91233 966.556 -8.22504 966.763 -8.53416C966.97 -8.84329 966.784 -9.23985 967.027 -9.59381C967.797 -10.8927 968.724 -12.091 969.788 -13.1616C970.095 -13.4593 969.882 -14.0851 970.095 -14.4472C970.307 -14.8092 970.877 -14.8415 971.092 -15.2271C971.226 -15.4695 971.032 -16.0859 971.16 -16.3219C972.24 -18.2795 972.502 -20.083 973.922 -21.9586C974.252 -22.3985 974.752 -22.777 974.93 -23.2396C975.07 -23.6222 974.56 -24.556 974.925 -24.5582C975.29 -24.5605 975.184 -25.3094 975.298 -25.6772C975.525 -26.4014 975.308 -26.7187 975.466 -27.3997C975.502 -27.5319 975.97 -28.0402 975.952 -28.1892C976.328 -29.9245 976.192 -32.6051 976.415 -32.9685C977.121 -34.115 976.026 -35.6831 975.458 -36.7727C975.299 -37.0853 975.459 -37.5516 975.252 -37.8294C975.127 -38.0065 974.652 -38.0029 974.519 -38.1499C973.231 -39.5442 972.022 -40.6049 970.027 -40.126C969.667 -39.9822 969.287 -39.8924 968.9 -39.8596C968.245 -40.1079 967.85 -39.3757 967.313 -38.9639C966.222 -38.3044 965.057 -37.777 963.842 -37.3929C963.398 -37.2245 962.354 -37.3748 961.989 -37.0296C961.314 -36.369 959.507 -35.767 957.849 -35.2347C957.457 -35.1131 957.43 -34.8542 957.027 -34.7369C956.797 -34.6692 956.193 -34.7318 955.957 -34.6634C954.36 -34.2023 952.499 -34.2564 950.829 -33.4787C950.155 -33.1552 948.738 -33.4243 948.097 -33.064C947.058 -32.4827 945.688 -32.9025 944.423 -32.7653C941.401 -32.4445 940.206 -32.9023 937.975 -32.9535C936.923 -32.9751 935.394 -32.7196 934.276 -32.7159C932.869 -32.7129 931.877 -32.9681 930.601 -33.0736C930.168 -33.1098 929.821 -33.8419 929.499 -33.525C929.177 -33.2082 928.525 -33.7242 928.055 -33.2911C927.877 -33.1307 927.573 -33.3449 927.333 -33.3689C923.897 -33.7549 920.482 -34.2653 917.005 -34.8613C915.916 -35.0471 914.487 -36.0121 913.367 -35.8803C912.149 -35.6608 910.894 -35.7698 909.731 -36.1962C908.593 -36.7073 907.742 -36.4095 906.801 -36.7695C904.314 -37.7146 902.94 -37.5238 900.935 -37.9155C900.449 -38.0094 899.297 -38.0539 899.181 -38.5401C899.1 -38.8908 897.965 -38.4376 897.254 -38.6212C894.748 -39.2794 893.017 -40.1508 890.285 -40.2301C889.878 -40.2403 889.075 -40.1691 888.796 -40.2234C888.648 -40.2467 888.328 -40.61 888.168 -40.6376C885.502 -41.1317 883.086 -41.132 880.345 -42.21C879.737 -42.4523 878.893 -42.0914 878.434 -42.1536C877.787 -42.2343 876.132 -42.4115 875.599 -42.8021C875.066 -43.1927 874.608 -42.6098 873.65 -42.718C869.63 -43.1513 865.678 -43.3487 861.157 -44.2404C860.439 -44.3825 859.743 -44.8295 858.272 -44.4819C856.971 -44.166 852.676 -44.7124 849.79 -44.8609C848.927 -44.9046 847.319 -44.634 846.434 -44.6693C845.549 -44.7046 844.221 -44.2751 843.885 -45.1596C843.715 -45.6162 841.341 -44.8602 840.161 -44.8956C834.83 -45.0411 829.927 -46.2249 824.118 -45.4132C823.712 -45.3655 822.335 -44.9012 822.104 -45.339C821.873 -45.7767 821.149 -45.087 820.795 -45.0861C811.971 -45.0296 806.172 -44.3238 796.634 -44.5668C794.455 -44.6184 789.222 -44.9671 787.802 -44.7709C785.521 -44.456 784.509 -44.0462 782.332 -43.9352C777.182 -43.672 774.568 -43.5328 769.393 -43.1853C768.942 -43.1321 766.338 -43.1976 765.884 -43.1616C765.331 -42.9929 764.761 -42.883 764.185 -42.8337C759.716 -42.8889 755.285 -42.1871 750.877 -41.8195C749.887 -41.7526 748.894 -41.7541 747.904 -41.824C747.402 -41.8521 747.002 -41.3168 746.658 -41.6774C746.401 -41.9435 745.642 -42.383 745.431 -42.2536C744.737 -41.8057 743.766 -42.0285 742.848 -41.9495C740.451 -41.7313 738.25 -40.6935 735.89 -40.4622C734.021 -40.2422 732.849 -40.7901 730.294 -40.4893C728.9 -40.3252 727.197 -39.7761 725.818 -39.6254C700.562 -36.7921 678.788 -32.9275 665.801 -28.8011C644.405 -21.9649 615.242 -19.5376 615.463 -6.09259Z" fill="#F1EFED"/>
<text fill="#161513" xml:space="preserve" style="white-space: pre" font-family="Oracle Sans" font-size="24" font-weight="600" letter-spacing="0em"><tspan x="234.418" y="52.224">What Is Intelligent Automation (IA)?</tspan></text>
<path d="M571.726 312.225C544.862 357.265 495.709 387.496 439.641 387.496C383.573 387.496 333.13 356.465 306.506 310.439L318.103 303.934C342.453 345.895 387.816 374.167 439.641 374.167C491.467 374.167 535.659 346.615 560.209 305.547L571.726 312.225Z" fill="#E4E1DD"/>
<path d="M593.525 233.283C593.525 260.576 586.374 286.234 573.842 308.475L562.345 301.828C573.735 281.554 580.234 258.17 580.234 233.283C580.234 156.521 518.341 93.9448 441.841 92.8813V79.587C525.664 80.6505 593.525 149.183 593.525 233.283Z" fill="#E4E1DD"/>
<path d="M437.299 79.587V92.88C360.8 93.9434 298.906 156.514 298.906 233.268C298.906 257.474 305.059 280.259 315.878 300.158L304.302 306.659C292.394 284.845 285.615 259.827 285.615 233.268C285.615 149.176 353.477 80.6504 437.299 79.587Z" fill="#E4E1DD"/>
<path d="M557.083 163.67L478.355 208.727C465.34 188.103 438.138 181.204 416.741 193.45C410.294 197.14 405.072 202.165 401.229 207.994L378.408 194.33L346.307 175.118L323.486 161.454C335.069 142.725 351.341 126.535 371.756 114.851C436.561 77.7614 519.249 99.7091 557.083 163.67Z" fill="#4C825C"/>
<path d="M507.423 352.21C486.418 364.232 463.531 370.07 440.907 370.276L441.045 343.686L441.254 306.274L441.401 279.647C448.576 279.385 455.788 277.417 462.439 273.611C483.861 261.35 491.71 234.39 480.521 212.721L559.339 167.611C595.322 232.631 572.302 315.078 507.423 352.21Z" fill="#437C94"/>
<path d="M437.194 370.427C390.714 369.528 345.851 344.986 321.161 301.847C296.471 258.708 298.08 206.25 321.718 165.466L344.549 179.133L376.679 198.363L399.528 212.035C392.219 225.569 391.834 242.452 400.002 256.724C408.17 270.996 422.54 279.005 437.678 279.738L437.54 306.367L437.338 343.809L437.345 343.821L437.194 370.427Z" fill="#4F7D7B"/>
<mask id="mask0_70_129" style="mask-type:alpha" maskUnits="userSpaceOnUse" x="322" y="96" width="235" height="113">
<path d="M556.58 163.67L477.852 208.727C464.837 188.103 437.635 181.204 416.238 193.45C409.791 197.14 404.568 202.165 400.726 207.994L377.905 194.33L345.804 175.118L322.983 161.454C334.566 142.725 350.838 126.535 371.253 114.851C436.058 77.7614 518.746 99.7091 556.58 163.67Z" fill="#4C825C"/>
</mask>
<g mask="url(#mask0_70_129)">
<path d="M365.402 109.529C363.622 109.396 361.92 109.029 360.172 108.931C358.331 109.293 356.635 108.996 355.004 108.423C353.253 108.436 351.756 107.236 349.868 108.007C349.009 108.033 348.148 107.988 347.296 107.873C346.472 107.608 345.597 107.54 344.742 107.676C343.898 107.587 343.099 107.261 342.221 107.377C341.466 106.832 340.373 107.967 339.614 107.43C338.855 106.892 338.06 106.544 337.033 107.338C336.282 106.761 335.247 107.582 334.438 107.264C332.714 107.176 330.878 107.653 329.24 107.136C327.538 106.949 325.687 107.503 324.05 107.006C322.374 106.688 320.567 107.036 318.86 106.884C317.116 106.844 315.354 107.008 313.663 106.779C312.729 107.109 311.884 107.009 311.048 106.857C310.211 106.704 309.381 106.522 308.478 106.708C307.605 106.845 306.723 106.912 305.839 106.907C305.154 107.028 304.844 106.286 303.29 106.685C303.429 106.506 301.22 106.711 300.621 106.955C299.221 105.656 299.323 105.992 298.069 106.502C297.215 106.372 296.019 106.709 295.366 106.671C294.864 106.601 294.53 105.554 292.802 106.047C291.606 105.577 289.726 107.131 290.148 105.809C290.493 106.207 289.744 106.943 287.511 105.435C286.381 106.635 285.586 105.633 284.831 105.256C283.92 105.476 284.357 106.138 282.214 104.772C281.875 104.53 280.243 104.074 279.592 104.331C278.697 104.009 276.488 103.674 276.929 104.176C276.436 103.56 275.313 104.79 274.194 104.436C272.995 103.986 273.633 104.543 271.676 103.755C270.102 104.201 270.454 102.876 269.005 103.779C268.44 103.34 266.802 103.399 266.385 103.636C264.597 103.186 264.933 103.874 263.719 103.775C261.913 103.775 262.114 104.058 261.096 103.766C261.203 104.514 259.97 104.116 258.439 103.948C257.453 104.128 255.693 103.49 255.813 103.995C254.939 104.116 254.056 104.147 253.177 104.089C252.43 104.36 251.107 103.867 250.544 104.137C249.631 104.339 248.782 104.199 247.93 104.069C247.079 103.94 246.225 103.823 245.295 104.057C243.497 104.231 241.854 103.597 240.069 103.595C238.255 103.678 236.475 103.545 234.849 102.65C233.221 101.914 231.482 101.454 229.703 101.291C228.062 100.465 226.273 100.377 224.601 99.7132C222.889 99.2403 221.288 98.2208 219.509 98.0808C217.825 97.4712 216.163 96.7573 214.396 96.5602C212.663 96.1941 210.947 95.7411 209.225 95.3204C207.504 94.9747 205.745 94.8387 204.083 94.2336C202.332 94.0733 200.686 93.4066 198.978 93.0535C197.28 92.6581 195.626 92.052 193.896 91.8132C192.204 91.3906 190.51 90.9644 188.816 90.5346C185.428 89.6733 187.013 89.4909 182.98 87.8383C180.651 87.2647 180.924 86.8375 179.14 86.0685C177.632 85.2619 172.892 81.3985 171.837 77.6784C170.782 73.9583 172.147 71.1066 175.647 66.9181C178.624 63.3585 187.272 61.6772 190.909 58.1597C194.545 54.6421 199.943 44.004 204.474 41.2349C212.094 36.5601 225.508 39.9542 234.57 40.6053C243.633 41.2565 249.117 49.2451 258.704 51.8785C268.201 54.4885 278.465 54.8743 287.529 56.1332C295.353 57.2207 302.203 56.6209 309.597 56.3062C316.991 55.9915 325.16 57.7197 332.574 57.1013C340.528 56.4389 347.772 55.2047 355.433 55.7166C363.094 56.2284 370.845 57.5186 378.958 59.375C387.136 61.2524 394.707 64.7814 402.711 66.1741C410.716 67.5668 419.048 66.2202 427.446 66.8542C435.761 67.4896 444.101 69.534 452.375 70.2077C460.648 70.8814 468.723 72.0296 477.044 73.3126C484.874 74.5203 493.431 72.6888 501.208 74.2866C508.985 75.8845 515.528 81.6063 523.231 83.3338C535.123 86.001 550.773 87.9334 558.952 95.0902C566.93 102.044 563.281 108.873 560.647 115.638C559.475 118.642 559.691 122.139 559.331 125.526C559.184 127.221 558.771 128.883 558.108 130.451C557.395 132.503 556.685 132.898 555.709 133.667C554.743 134.39 553.477 135.649 552.249 136.465C550.87 138.028 549.877 137.426 548.511 139.116C547.145 140.807 546.2 140.824 545.271 141.899C544.007 143.788 543.011 144.144 541.838 145.005C540.711 145.835 539.497 146.538 538.217 147.104C536.958 147.665 535.558 148.501 534.238 148.404C532.918 148.307 531.356 148.86 529.74 149.052C528.063 149.537 526.505 148.79 524.562 149.196C522.982 149.518 521.622 148.684 519.988 149.108C518.461 148.927 516.923 148.854 515.386 148.89C513.87 148.611 512.16 149.217 510.703 148.482C509.138 148.155 507.551 147.94 505.954 147.839C504.401 147.387 502.615 147.977 501.142 146.909C499.452 146.918 497.986 145.701 496.262 145.637C494.68 144.959 493.036 144.438 491.352 144.079C489.674 143.841 488.196 142.696 486.57 142.4C484.992 141.853 483.376 141.601 481.933 140.665C480.41 140.101 478.811 140.057 477.46 138.948C476.085 137.96 474.521 138.073 473.17 137.311C471.867 136.322 470.291 136.867 469.08 135.835C467.141 136.555 467.342 135.264 466.599 134.941C466.225 134.608 465.132 135.304 464.139 134.023C463.2 133.556 462.739 132.938 461.832 132.392C461.769 132.782 459.995 131.263 459.264 132.085C457.688 132.63 458.05 131.04 456.876 130.898C455.851 129.658 454.714 130.805 454.409 130.102C453.288 130.539 453.34 127.801 451.981 129.072C451.31 129.289 450.424 128.55 449.521 128.154C449.107 127.554 447.764 128.085 447.032 127.31C446.126 127.387 445.335 126.884 444.55 126.318C443.726 125.977 442.947 125.386 442.029 125.484C441.158 125.35 440.489 124.161 439.51 124.587C438.58 124.719 437.846 123.881 436.978 123.691C436.119 123.457 435.409 122.51 434.423 122.881C433.608 122.417 432.683 122.552 431.87 122.04C430.939 122.15 430.177 121.475 429.312 121.208C428.204 120.686 427.022 120.531 425.896 120.111C424.754 119.773 423.645 119.271 422.485 119.031C421.295 118.944 420.174 118.51 419.086 117.971C417.499 116.877 415.563 117.263 413.785 116.79C411.888 116.89 410.08 116.447 408.227 116.191C406.35 116.039 404.57 115.366 402.564 115.83C400.679 115.71 398.781 115.662 396.95 115.385C395.071 115.333 393.327 114.712 391.533 114.496C390.647 114.357 389.779 114.144 388.914 113.939C388.025 113.846 387.317 112.9 386.33 113.302C384.439 113.721 382.802 112.996 381.178 112.179C379.478 111.74 377.729 111.538 376.013 111.155C374.267 110.851 372.55 110.498 370.774 110.253C369.047 109.67 367.223 109.424 365.402 109.529Z" fill="#467553"/>
</g>
<mask id="mask1_70_129" style="mask-type:alpha" maskUnits="userSpaceOnUse" x="440" y="167" width="136" height="204">
<path d="M506.92 352.21C485.914 364.232 463.028 370.07 440.404 370.276L440.542 343.686L440.751 306.274L440.898 279.647C448.073 279.385 455.285 277.417 461.936 273.611C483.358 261.35 491.207 234.39 480.018 212.72L558.835 167.611C594.819 232.63 571.799 315.078 506.92 352.21Z" fill="#437C94"/>
</mask>
<g mask="url(#mask1_70_129)">
<path d="M558.764 328.373C557.595 329.813 556.271 331.046 555.15 332.479C554.366 334.264 553.107 335.534 551.649 336.585C550.622 338.086 548.709 338.65 548.247 340.718C547.758 341.466 547.209 342.174 546.606 342.832C545.89 343.377 545.313 344.083 544.921 344.894C544.344 345.56 543.592 346.048 543.169 346.866C542.257 347.186 542.576 348.793 541.667 349.121C540.758 349.449 539.99 349.92 540.057 351.267C539.119 351.565 539.205 352.935 538.454 353.436C537.356 354.855 536.672 356.704 535.259 357.793C534.089 359.134 533.463 361.042 532.067 362.143C530.801 363.383 530.025 365.131 528.883 366.497C527.814 367.961 526.907 369.56 525.708 370.867C525.435 371.859 524.849 372.52 524.222 373.143C523.596 373.766 522.947 374.366 522.57 375.246C522.169 376.072 521.702 376.864 521.173 377.615C520.87 378.271 520.053 378.095 519.471 379.657C519.401 379.432 518.264 381.438 518.117 382.094C516.177 382.517 516.525 382.629 516.216 384.002C515.598 384.653 515.175 385.872 514.755 386.407C514.398 386.793 513.307 386.456 512.702 388.223C511.591 388.964 511.8 391.49 510.923 390.346C511.467 390.287 511.65 391.363 509.038 392.372C509.391 394.049 508.065 394.131 507.296 394.551C506.942 395.46 507.766 395.48 505.329 396.496C504.922 396.642 503.564 397.763 503.397 398.47C502.591 399.043 500.994 400.728 501.684 400.65C500.866 400.704 501.248 402.392 500.283 403.136C499.186 403.892 500.041 403.678 498.206 404.88C497.653 406.487 496.732 405.4 496.642 407.172C495.932 407.393 495.01 408.825 494.965 409.321C493.52 410.58 494.306 410.701 493.501 411.678C492.428 413.218 492.789 413.215 491.936 413.909C492.638 414.262 491.566 415.078 490.515 416.283C490.083 417.231 488.493 418.354 488.995 418.551C488.58 419.368 488.082 420.139 487.511 420.855C487.299 421.653 486.093 422.488 485.989 423.128C485.619 424.027 484.996 424.668 484.38 425.318C483.764 425.967 483.157 426.626 482.805 427.558C481.887 429.195 480.37 430.219 479.309 431.741C478.303 433.337 477.134 434.776 475.405 435.632C473.811 436.583 472.387 437.793 471.191 439.214C469.513 440.123 468.376 441.596 466.817 442.629C465.398 443.808 463.578 444.568 462.403 446.002C460.883 447.076 459.287 448.07 458.071 449.46C456.73 450.721 455.325 451.915 453.944 453.134C452.627 454.397 451.467 455.816 449.965 456.874C448.789 458.272 447.243 459.281 445.929 460.527C444.583 461.741 443.085 462.792 441.854 464.126C440.489 465.318 439.12 466.509 437.748 467.699C435.002 470.077 435.788 468.617 431.984 471.076C430.113 472.721 429.911 472.235 428.196 473.3C426.613 474.108 420.504 475.857 416.706 474.548C412.907 473.239 411.285 470.383 409.79 464.912C408.521 460.26 412.221 451.887 411.38 446.697C410.538 441.508 404.67 430.59 404.997 425.082C405.534 415.809 416.39 406.383 422.325 399.041C428.26 391.698 438.328 391.763 446.265 385.15C454.127 378.6 460.549 370.075 467.003 363.092C472.575 357.066 476.129 350.868 480.249 344.375C484.37 337.882 490.693 331.941 494.566 325.251C498.723 318.074 501.97 311.164 506.954 304.934C511.938 298.704 517.639 292.859 524.038 287.042C530.493 281.182 537.997 276.82 543.936 270.82C549.875 264.82 553.673 256.915 559.198 250.129C564.675 243.415 571.369 237.516 576.855 230.859C582.34 224.203 588.113 217.999 594.146 211.664C599.824 205.703 603.341 197.318 609.32 191.633C615.299 185.949 624.063 183.765 630.108 178.222C639.442 169.662 650.379 157.463 661.338 154.736C672.003 152.059 675.662 159.225 679.867 165.487C681.734 168.269 684.845 170.161 687.52 172.478C688.878 173.61 690.051 174.949 690.994 176.445C692.32 178.271 692.236 179.111 692.313 180.399C692.356 181.653 692.678 183.479 692.645 185.011C693.16 187.115 692.056 187.605 692.687 189.773C693.319 191.941 692.772 192.758 693.137 194.188C693.998 196.388 693.711 197.448 693.749 198.959C693.787 200.413 693.667 201.866 693.389 203.293C693.121 204.7 693.003 206.39 692.136 207.459C691.27 208.527 690.814 210.187 690.019 211.679C689.437 213.398 687.875 214.283 687.068 216.181C686.405 217.719 684.886 218.384 684.278 220.03C683.217 221.225 682.242 222.493 681.36 223.825C680.223 224.952 679.724 226.77 678.233 227.576C677.025 228.717 675.899 229.943 674.866 231.244C673.559 232.301 673.002 234.175 671.216 234.796C670.221 236.243 668.313 236.771 667.235 238.203C665.718 239.15 664.297 240.243 662.992 241.466C661.792 242.756 659.938 243.337 658.721 244.548C657.318 245.569 656.144 246.798 654.489 247.473C653.104 248.437 652.117 249.774 650.37 250.268C648.711 250.855 647.879 252.255 646.427 252.955C644.811 253.48 644.34 255.147 642.741 255.567C642.204 257.648 641.222 256.711 640.506 257.153C639.999 257.274 639.944 258.619 638.262 258.706C637.307 259.229 636.506 259.256 635.502 259.705C635.797 259.991 633.449 260.601 633.716 261.713C633.245 263.381 632.104 262.128 631.286 263.045C629.62 263.183 629.923 264.834 629.143 264.677C628.85 265.892 626.546 264.223 626.823 266.136C626.61 266.837 625.454 267.154 624.58 267.689C623.823 267.685 623.479 269.147 622.383 269.311C621.911 270.129 621.012 270.505 620.064 270.838C619.284 271.339 618.317 271.652 617.856 272.493C617.225 273.157 615.814 273.021 615.596 274.11C615.156 274.981 614.006 275.11 613.329 275.737C612.619 276.33 611.39 276.374 611.121 277.435C610.242 277.855 609.808 278.724 608.889 279.113C608.43 279.973 607.402 280.222 606.661 280.801C605.558 281.436 604.724 282.352 603.698 283.063C602.732 283.837 601.645 284.485 600.752 285.331C599.971 286.295 598.936 286.992 597.83 287.601C595.955 288.304 595.135 290.185 593.676 291.421C592.636 293.098 591.185 294.377 589.866 295.805C588.623 297.316 586.993 298.434 586.197 300.42C584.975 301.957 583.808 303.547 582.485 304.944C581.326 306.516 579.761 307.634 578.512 309.037C577.868 309.709 577.171 310.323 576.483 310.939C575.875 311.643 574.648 311.684 574.405 312.764C573.64 314.626 572.05 315.593 570.389 316.493C569.005 317.682 567.796 319.053 566.45 320.289C565.155 321.598 563.834 322.853 562.571 324.222C561.048 325.349 559.756 326.758 558.764 328.373Z" fill="#3B7087"/>
</g>
<mask id="mask2_70_129" style="mask-type:alpha" maskUnits="userSpaceOnUse" x="302" y="165" width="136" height="206">
<path d="M436.691 370.427C390.211 369.528 345.347 344.986 320.658 301.847C295.968 258.708 297.577 206.25 321.215 165.467L344.046 179.134L376.175 198.363L399.025 212.035C391.716 225.569 391.331 242.452 399.499 256.724C407.667 270.996 422.037 279.005 437.175 279.738L437.037 306.367L436.835 343.809L436.842 343.821L436.691 370.427Z" fill="#4F7D7B"/>
</mask>
<g mask="url(#mask2_70_129)">
<path d="M351.622 336.585C351.962 338.248 352.066 339.901 352.429 341.526C353.236 343.117 353.404 344.745 353.301 346.387C353.766 347.985 353.055 349.666 354.25 351.194C354.495 351.974 354.677 352.773 354.793 353.583C354.763 354.405 354.927 355.224 355.273 355.971C355.41 356.767 355.318 357.582 355.651 358.356C355.348 359.187 356.67 359.894 356.374 360.728C356.079 361.561 355.966 362.379 356.958 363.113C356.624 363.95 357.644 364.685 357.562 365.507C357.928 367.108 358.84 368.665 358.79 370.297C359.059 371.903 360.045 373.454 360.014 375.081C360.156 376.697 360.943 378.261 361.246 379.861C361.66 381.468 362.266 383.039 362.494 384.645C363.038 385.415 363.165 386.213 363.242 387.018C363.319 387.823 363.367 388.631 363.77 389.408C364.122 390.172 364.411 390.962 364.636 391.772C364.924 392.368 364.325 392.843 365.092 394.162C364.892 394.081 365.652 396.05 366.03 396.535C365.203 398.153 365.484 397.972 366.276 398.988C366.378 399.803 366.995 400.81 367.129 401.418C367.195 401.895 366.324 402.471 367.222 403.925C367.101 405.141 369.01 406.46 367.691 406.416C367.966 405.997 368.833 406.492 368.031 408.926C369.422 409.65 368.71 410.636 368.561 411.424C368.998 412.202 369.491 411.631 368.795 413.945C368.662 414.318 368.666 415.929 369.07 416.458C369.007 417.361 369.272 419.469 369.617 418.936C369.181 419.546 370.597 420.256 370.563 421.371C370.461 422.585 370.806 421.857 370.591 423.852C371.407 425.177 370.103 425.198 371.305 426.29C371.049 426.92 371.526 428.404 371.851 428.724C371.902 430.477 372.445 429.992 372.669 431.128C373.135 432.782 373.343 432.525 373.339 433.531C373.995 433.239 373.951 434.471 374.193 435.915C374.613 436.771 374.484 438.548 374.915 438.307C375.252 439.075 375.509 439.875 375.683 440.695C376.125 441.308 376.016 442.646 376.408 443.092C376.829 443.875 376.922 444.688 377.023 445.501C377.125 446.314 377.239 447.126 377.694 447.916C378.319 449.517 378.163 451.184 378.623 452.819C379.168 454.457 379.508 456.12 379.109 457.84C378.857 459.52 378.886 461.231 379.197 462.901C378.866 464.616 379.249 466.276 379.074 467.979C379.084 469.667 378.565 471.396 378.897 473.06C378.775 474.759 378.552 476.466 378.829 478.134C378.942 479.814 378.971 481.501 379.032 483.186C379.161 484.851 379.492 486.496 379.368 488.173C379.674 489.817 379.49 491.496 379.609 493.15C379.687 494.807 379.56 496.477 379.789 498.122C379.84 499.78 379.888 501.44 379.933 503.102C380.022 506.425 379.445 505.022 378.976 509.141C379.054 511.42 378.592 511.281 378.35 513.112C378.002 514.701 375.693 520.039 372.561 521.967C369.43 523.895 366.467 523.384 361.728 521.264C357.701 519.461 353.924 511.982 349.764 509.564C345.604 507.147 334.472 504.959 330.765 501.53C324.515 495.766 324.15 482.612 322.401 474.15C320.652 465.687 326.544 458.601 326.473 449.146C326.404 439.781 324.101 430.287 322.908 421.666C321.879 414.225 319.557 408.112 317.356 401.427C315.155 394.742 314.623 386.818 312.138 380.193C309.474 373.085 306.47 366.776 304.956 359.632C303.442 352.489 302.617 345.061 302.217 337.157C301.819 329.187 303.089 321.345 302.292 313.66C301.496 305.974 298.107 298.697 296.514 290.848C294.944 283.074 294.657 274.912 293.133 267.167C291.609 259.421 290.57 251.734 289.591 243.787C288.67 236.309 284.78 228.952 284.23 221.421C283.679 213.89 287.223 206.422 286.811 198.926C286.174 187.353 283.893 172.531 288.326 163.194C292.625 154.094 299.82 155.666 306.692 156.326C309.744 156.621 312.889 155.518 316.081 154.972C317.671 154.668 319.299 154.615 320.905 154.816C322.967 154.938 323.513 155.485 324.468 156.179C325.381 156.877 326.86 157.71 327.924 158.622C329.712 159.479 329.418 160.545 331.318 161.357C333.219 162.169 333.479 163.03 334.703 163.602C336.759 164.27 337.343 165.089 338.434 165.939C339.485 166.756 340.443 167.686 341.292 168.71C342.131 169.718 343.258 170.782 343.511 172.015C343.764 173.249 344.674 174.535 345.268 175.964C346.146 177.374 345.866 178.993 346.74 180.666C347.443 182.029 347.032 183.489 347.843 184.875C348.072 186.319 348.404 187.745 348.834 189.143C348.971 190.602 349.968 192.01 349.672 193.533C349.778 195.051 349.992 196.558 350.312 198.046C350.301 199.584 351.303 201.066 350.706 202.69C351.153 204.234 350.418 205.89 350.805 207.485C350.595 209.108 350.543 210.748 350.651 212.381C350.866 213.979 350.201 215.628 350.352 217.192C350.259 218.778 350.447 220.323 349.963 221.885C349.841 223.424 350.214 224.899 349.549 226.422C349.001 227.936 349.509 229.338 349.161 230.772C348.594 232.22 349.5 233.521 348.869 234.897C350.03 236.485 348.796 236.635 348.693 237.399C348.485 237.827 349.404 238.647 348.49 239.888C348.305 240.868 347.859 241.45 347.593 242.421C347.967 242.378 347.035 244.394 347.978 244.851C348.884 246.152 347.335 246.232 347.508 247.343C346.639 248.602 347.983 249.346 347.419 249.807C348.109 250.719 345.59 251.381 347.104 252.295C347.476 252.853 347.029 253.855 346.901 254.784C346.459 255.318 347.293 256.41 346.773 257.28C347.077 258.089 346.822 258.944 346.507 259.808C346.408 260.65 346.069 261.516 346.396 262.331C346.499 263.163 345.584 264.083 346.227 264.868C346.588 265.685 346.011 266.574 346.062 267.417C346.07 268.264 345.387 269.159 345.982 269.965C345.768 270.831 346.131 271.643 345.873 272.519C346.215 273.343 345.794 274.215 345.774 275.075C345.582 276.224 345.747 277.346 345.654 278.485C345.64 279.618 345.468 280.763 345.547 281.886C345.776 282.998 345.669 284.136 345.457 285.272C344.866 287.007 345.721 288.679 345.748 290.429C346.33 292.139 346.393 293.908 346.638 295.67C346.985 297.427 346.83 299.229 347.773 300.945C348.151 302.702 348.598 304.451 348.818 306.199C349.257 307.931 349.14 309.688 349.407 311.386C349.509 312.232 349.538 313.082 349.575 313.926C349.72 314.764 349.037 315.657 349.66 316.456C350.533 318.078 350.294 319.764 349.966 321.462C350.003 323.131 350.272 324.783 350.365 326.453C350.539 328.129 350.66 329.793 350.895 331.481C350.808 333.213 351.055 334.945 351.622 336.585Z" fill="#467173"/>
</g>
<text fill="#FBF9F8" xml:space="preserve" style="white-space: pre" font-family="Oracle Sans" font-size="14" letter-spacing="0em"><tspan x="340.04" y="260.089">Robotic&#10;</tspan><tspan x="339.685" y="278.089">process&#10;</tspan><tspan x="327.318" y="296.089">automation</tspan></text>
<text fill="#FBF9F8" xml:space="preserve" style="white-space: pre" font-family="Oracle Sans" font-size="14" letter-spacing="0em"><tspan x="371.249" y="146.089">Artificial intelligence/</tspan><tspan x="384.183" y="164.089">Machine learning</tspan></text>
<text fill="#FBF9F8" xml:space="preserve" style="white-space: pre" font-family="Oracle Sans" font-size="14" letter-spacing="0em"><tspan x="485.349" y="269.089">Integration </tspan><tspan x="492.889" y="287.089">platform</tspan></text>
<text fill="#161513" xml:space="preserve" style="white-space: pre" font-family="Oracle Sans" font-size="16" letter-spacing="0em"><tspan x="602" y="153.316">Satisfied </tspan><tspan x="602" y="174.316">customers</tspan></text>
<text fill="#161513" xml:space="preserve" style="white-space: pre" font-family="Oracle Sans" font-size="16" letter-spacing="0em"><tspan x="396" y="422.316">Lower costs</tspan></text>
<text fill="#161513" xml:space="preserve" style="white-space: pre" font-family="Oracle Sans" font-size="16" letter-spacing="0em"><tspan x="151.406" y="143.316">Business process </tspan><tspan x="177.844" y="164.316">improvement</tspan></text>
<path d="M340 157.5C340 172.136 328.136 184 313.5 184C298.864 184 287 172.136 287 157.5C287 142.864 298.864 131 313.5 131C328.136 131 340 142.864 340 157.5Z" fill="#FBF9F8" stroke="#F1EFED" stroke-width="4"/>
<g clip-path="url(#clip1_70_129)">
<path d="M326.029 148H300.971C299.887 148 299 148.875 299 149.944V166.056C299 167.125 299.887 168 300.971 168H326.029C327.113 168 328 167.125 328 166.056V149.944C328 148.875 327.113 148 326.029 148ZM326.874 166.056C326.874 166.514 326.494 166.889 326.029 166.889H300.971C300.506 166.889 300.126 166.514 300.126 166.056V149.944C300.126 149.486 300.506 149.111 300.971 149.111H326.029C326.494 149.111 326.874 149.486 326.874 149.944V166.056ZM300.971 166.056H324.058V149.944H300.971V166.056ZM322.932 151.056V164.944H302.097V162.958L307.447 157.681L312.233 162.403L320.117 154.625V157.444H321.243V152.722H316.456V153.833H319.314L312.233 160.819L307.447 156.097L302.097 161.375V151.056H322.932ZM324.903 156.333H326.029V159.667H324.903V156.333Z" fill="#4C825C"/>
</g>
<rect x="299.5" y="148.5" width="28" height="19" stroke="#4C825C"/>
<path d="M592 161.5C592 176.136 580.136 188 565.5 188C550.864 188 539 176.136 539 161.5C539 146.864 550.864 135 565.5 135C580.136 135 592 146.864 592 161.5Z" fill="#FBF9F8" stroke="#F1EFED" stroke-width="4"/>
<g clip-path="url(#clip2_70_129)">
<path d="M572.12 156.219V164.031H580V156.219H572.12ZM578.739 162.781H577.793V159.031H576.533V162.781H575.587V160.459H574.326V162.781H573.38V157.469H578.739V162.781ZM560.141 164.031V156.219H551V162.469H557.317L558.578 164.031H560.141ZM552.261 161.219V157.469H558.88V162.406L557.922 161.219H552.261ZM553.207 158.406H557.935V159.656H553.207V158.406ZM558.25 155.281H556.639C557.687 153.838 559.053 152.653 560.635 151.814C560.671 152.25 560.761 152.68 560.904 153.094C559.904 153.673 559.007 154.412 558.25 155.281ZM571.103 152.928C571.232 152.508 571.309 152.073 571.332 151.634C573.046 152.478 574.522 153.731 575.626 155.281H574.03C573.207 154.325 572.213 153.527 571.098 152.928H571.103ZM570.504 170.175C570.865 169.823 571.173 169.422 571.42 168.984L571.546 168.767L569.755 161.677H569.744C569.333 160.411 568.189 159.497 566.841 159.497H565.092C563.58 159.497 562.324 160.647 562.074 162.153L560.414 168.764L560.54 168.981C560.785 169.419 561.093 169.819 561.453 170.17C560.475 170.303 559.578 170.784 558.931 171.523C558.284 172.262 557.93 173.209 557.935 174.188V177H559.196V174.188C559.196 172.611 560.475 171.375 562.11 171.375H563.648C563.767 171.898 564.062 172.366 564.484 172.701C564.907 173.036 565.432 173.218 565.973 173.218C566.514 173.218 567.039 173.036 567.461 172.701C567.884 172.366 568.179 171.898 568.298 171.375H569.836C571.47 171.375 572.75 172.611 572.75 174.188V177H574.011V174.188C574.015 173.21 573.662 172.265 573.016 171.527C572.37 170.789 571.476 170.309 570.499 170.175H570.504ZM563.293 164.909V163.956C564.244 164.083 565.206 163.834 565.973 163.263C566.351 163.548 566.783 163.756 567.243 163.875C567.702 163.994 568.181 164.021 568.652 163.956V164.909C568.652 166.503 567.448 167.798 565.973 167.798C564.498 167.798 563.293 166.503 563.293 164.909ZM568.337 170.009V168.217C568.933 167.742 569.387 167.113 569.647 166.4L570.194 168.573C569.781 169.268 569.117 169.782 568.337 170.009ZM565.092 160.75H566.846C567.836 160.75 568.641 161.619 568.651 162.689C568.134 162.792 567.273 162.786 566.397 161.995L565.973 161.613L565.549 162C564.669 162.794 563.804 162.797 563.287 162.694C563.288 162.602 563.295 162.51 563.309 162.419L563.418 161.983C563.535 161.632 563.759 161.325 564.059 161.104C564.358 160.884 564.719 160.76 565.092 160.75ZM562.301 166.427C562.564 167.132 563.016 167.753 563.609 168.223V170.006C562.832 169.778 562.172 169.266 561.762 168.573L562.301 166.427ZM565.973 171.967C565.398 171.967 564.87 171.498 564.87 170.992V168.884C565.588 169.105 566.357 169.105 567.076 168.884V170.995C567.076 171.503 566.548 171.967 565.973 171.967ZM565.973 155.75C566.846 155.75 567.699 155.493 568.425 155.013C569.15 154.532 569.716 153.849 570.05 153.049C570.384 152.25 570.471 151.37 570.301 150.521C570.131 149.673 569.71 148.893 569.093 148.281C568.476 147.67 567.69 147.253 566.834 147.084C565.978 146.915 565.09 147.002 564.284 147.333C563.478 147.664 562.788 148.225 562.304 148.944C561.819 149.664 561.56 150.51 561.56 151.375C561.56 152.535 562.025 153.648 562.852 154.469C563.68 155.289 564.802 155.75 565.973 155.75ZM565.973 148.25C566.596 148.25 567.206 148.433 567.724 148.777C568.242 149.12 568.646 149.608 568.885 150.179C569.124 150.75 569.186 151.378 569.064 151.985C568.943 152.591 568.643 153.148 568.202 153.585C567.761 154.022 567.199 154.319 566.588 154.44C565.976 154.561 565.343 154.499 564.767 154.262C564.191 154.026 563.698 153.625 563.352 153.111C563.006 152.597 562.821 151.993 562.821 151.375C562.821 150.546 563.153 149.751 563.744 149.165C564.335 148.579 565.137 148.25 565.973 148.25ZM565.388 153.395L563.82 151.833L564.712 150.956L565.388 151.628L567.234 149.797L568.126 150.681L565.388 153.395Z" fill="#437C94"/>
</g>
<path d="M465 375.5C465 390.136 453.136 402 438.5 402C423.864 402 412 390.136 412 375.5C412 360.864 423.864 349 438.5 349C453.136 349 465 360.864 465 375.5Z" fill="#FBF9F8" stroke="#E4E1DD" stroke-width="4"/>
<path d="M440.516 370.142V375.89C440.065 376 439.629 376.173 439.226 376.409V370.142C439.226 370.11 439.194 370.094 439.177 370.094H427.661C427.629 370.094 427.613 370.11 427.613 370.142V377.606C427.613 377.638 427.629 377.654 427.661 377.654H437.823C437.516 378.031 437.307 378.457 437.129 378.898H435.355V380.315H434.065V378.898H432.774V380.315H431.484V378.898H427.613C426.871 378.898 426.323 378.315 426.323 377.591V370.142C426.323 369.417 426.919 368.835 427.661 368.835H439.177C439.919 368.835 440.516 369.417 440.516 370.142Z" fill="#4F7D7B"/>
<path d="M438.419 381.276V382.535H421V381.906L422.29 381.276H438.419Z" fill="#4F7D7B"/>
<path d="M446.968 375.134C445.387 375.134 444.064 373.984 443.919 372.488C444.71 373.244 445.774 373.717 446.968 373.717C448.145 373.717 449.226 373.26 450.016 372.504C449.823 373.953 448.516 375.134 446.968 375.134ZM448.742 377.181C448.258 377.622 447.613 377.811 446.952 377.811C446.29 377.811 445.677 377.606 445.194 377.181V376.031C445.742 376.268 446.339 376.394 446.968 376.394C447.597 376.394 448.194 376.252 448.742 376.016V377.181ZM445.677 367.26H450.032V369.465C450.032 371.118 448.661 372.457 446.968 372.457C445.274 372.457 443.903 371.118 443.903 369.465V369.276C443.919 367.937 444.516 367.26 445.677 367.26ZM451.726 376.709H450.032V375.134C450.823 374.362 451.323 373.307 451.323 372.142V366H445.677C443.774 366 442.629 367.228 442.613 369.291V372.205C442.613 373.37 443.113 374.425 443.903 375.181V376.709H442.048C439.694 376.709 437.774 378.614 437.774 380.961V386H439.064V380.961C439.064 379.339 440.435 377.969 442.048 377.969H444.194C444.935 378.677 445.903 379.071 446.952 379.071C448 379.071 448.968 378.677 449.71 377.969H451.726C453.339 377.969 454.71 379.339 454.71 380.961V386H456V380.961C456 378.614 454.081 376.709 451.726 376.709Z" fill="#4F7D7B"/>
<path d="M435.726 374.772C435.726 375.669 435.048 376.394 434.226 376.394H434.064V377.008H432.774V376.394H431.645V375.134H434.226C434.338 375.134 434.435 374.945 434.435 374.772C434.435 374.693 434.419 374.504 434.226 374.504H432.887C432 374.504 431.226 373.78 431.226 372.945C431.226 372.063 431.919 371.354 432.79 371.354V370.724H434.08V371.354H435.371V372.614H432.79C432.661 372.614 432.516 372.772 432.516 372.945C432.516 373.071 432.709 373.244 432.887 373.244H434.226C435.08 373.244 435.726 373.89 435.726 374.772Z" fill="#4F7D7B"/>
<path d="M-54.2948 422.338C-49.7054 417.865 -46.8569 411.849 -42.1884 407.455C-37.8364 403.398 -33.5142 399.451 -27.9951 397.235C-22.9903 395.236 -16.4918 394.848 -11.1112 395.046C-6.38336 395.224 8.73966 400.52 13.151 402.282C34.1988 410.673 44.9305 414.857 66.4926 421.804C71.2007 423.328 75.9879 424.812 80.9333 424.951C88.2328 425.149 95.2553 422.378 102.001 419.607C120.655 411.948 139.962 403.774 160.1 404.764C178.24 405.654 195.094 413.927 211.335 422.022C228.09 430.373 266.16 444.411 264.973 449.458C263.786 454.505 258.247 448.271 246.665 449.888C198.704 456.584 175.52 458.938 141.238 457.671C97.5796 456.068 53.4069 452.532 9.68919 452.353C-11.774 452.274 -24.3354 449.888 -51.1495 445.791C-61.6734 444.603 -72.1973 443.238 -82.7014 441.813C-85.6093 441.417 -93.977 441.991 -89.902 437.894C-87.5875 435.559 -81.5145 434.629 -78.4286 433.679C-69.9224 431.066 -60.8426 428.711 -54.2948 422.338Z" fill="#F1EFED"/>
<text fill="#161513" xml:space="preserve" style="white-space: pre" font-family="Oracle Sans" font-size="14" letter-spacing="0em"><tspan x="408.5" y="230.089">Intelligent </tspan><tspan x="402.396" y="248.089">Automation</tspan></text>
</g>
<defs>
<clipPath id="clip0_70_129">
<rect width="888" height="450" fill="white"/>
</clipPath>
<clipPath id="clip1_70_129">
<rect x="299" y="148" width="29" height="20" fill="white"/>
</clipPath>
<clipPath id="clip2_70_129">
<rect width="29" height="30" fill="white" transform="translate(551 147)"/>
</clipPath>
</defs>
</svg>
